<?xml version="1.0" encoding="UTF-8"?>
<svg version="1.1" xmlns="http://www.w3.org/2000/svg" width="173" height="135">
<path d="M0 0 C57.09 0 114.18 0 173 0 C173 44.55 173 89.1 173 135 C115.91 135 58.82 135 0 135 C0 90.45 0 45.9 0 0 Z " fill="#000000" transform="translate(0,0)"/>
<path d="M0 0 C4.15786246 2.82391409 6.8585136 6.9670272 9.08203125 11.4140625 C9.76522547 20.1904806 9.01257373 25.89419218 3.39453125 32.7890625 C2.24984375 34.0884375 2.24984375 34.0884375 1.08203125 35.4140625 C2.31953125 35.3521875 3.55703125 35.2903125 4.83203125 35.2265625 C7.51945282 35.09219142 8.90298577 35.32453976 11.33203125 36.5390625 C13.08203125 38.4140625 13.08203125 38.4140625 13.47265625 41.33203125 C13.42625 42.41097656 13.37984375 43.48992187 13.33203125 44.6015625 C13.2959375 45.68824219 13.25984375 46.77492187 13.22265625 47.89453125 C13.17625 48.72597656 13.12984375 49.55742188 13.08203125 50.4140625 C18.47311133 50.53619808 22.10806965 49.91551923 26.13671875 46.17578125 C27.43126794 44.8378173 28.70457391 43.47900786 29.95703125 42.1015625 C30.60671875 41.42416016 31.25640625 40.74675781 31.92578125 40.04882812 C34.85647738 36.9643609 37.56871736 33.85081809 40.08203125 30.4140625 C44.95703125 31.2890625 44.95703125 31.2890625 46.08203125 32.4140625 C46.18632 34.24433422 46.22057499 36.07863705 46.22729492 37.91186523 C46.23367477 39.08655869 46.24005463 40.26125214 46.24662781 41.47154236 C46.24774063 42.75065994 46.24885345 44.02977753 46.25 45.34765625 C46.2549926 47.30276878 46.2549926 47.30276878 46.26008606 49.29737854 C46.26608325 52.06064685 46.26792537 54.82388385 46.26733398 57.5871582 C46.26723234 61.13274723 46.28088356 64.67813607 46.29810619 68.22367764 C46.31188138 71.59834049 46.31131448 74.97296559 46.3125 78.34765625 C46.31968552 79.6247496 46.32687103 80.90184296 46.33427429 82.21763611 C46.33119766 83.39548172 46.32812103 84.57332733 46.32495117 85.78686523 C46.32637619 86.82753647 46.32780121 87.8682077 46.32926941 88.94041443 C46.08203125 91.4140625 46.08203125 91.4140625 44.08203125 93.4140625 C40.75898902 93.28731296 39.36547134 92.67511235 36.90625 90.41015625 C36.20113281 89.56582031 35.49601562 88.72148438 34.76953125 87.8515625 C33.98964844 86.954375 33.20976562 86.0571875 32.40625 85.1328125 C30.94780383 83.42679815 29.49170846 81.71876835 28.0390625 80.0078125 C24.58293771 76.19986662 22.31480264 74.01092549 17.08203125 73.4140625 C15.76203125 73.4140625 14.44203125 73.4140625 13.08203125 73.4140625 C13.1284375 74.17332031 13.17484375 74.93257813 13.22265625 75.71484375 C13.25875 76.70871094 13.29484375 77.70257813 13.33203125 78.7265625 C13.3784375 79.71269531 13.42484375 80.69882813 13.47265625 81.71484375 C13.08203125 84.4140625 13.08203125 84.4140625 11.39007568 86.06147766 C8.6122403 87.68937441 6.96736866 87.7775292 3.76269531 87.75463867 C2.70189758 87.75441208 1.64109985 87.75418549 0.54815674 87.75395203 C-0.59050842 87.73846817 -1.72917358 87.72298431 -2.90234375 87.70703125 C-4.07307434 87.70278641 -5.24380493 87.69854156 -6.45001221 87.69416809 C-10.18956491 87.67737425 -13.9285789 87.63971954 -17.66796875 87.6015625 C-20.20311722 87.58651663 -22.73827413 87.57282806 -25.2734375 87.56054688 C-31.48846508 87.52746835 -37.70317843 87.47726133 -43.91796875 87.4140625 C-43.91796875 86.4240625 -43.91796875 85.4340625 -43.91796875 84.4140625 C-26.42796875 84.0840625 -8.93796875 83.7540625 9.08203125 83.4140625 C9.08203125 68.8940625 9.08203125 54.3740625 9.08203125 39.4140625 C-13.68796875 39.4140625 -36.45796875 39.4140625 -59.91796875 39.4140625 C-59.91796875 53.9340625 -59.91796875 68.4540625 -59.91796875 83.4140625 C-57.27796875 83.7440625 -54.63796875 84.0740625 -51.91796875 84.4140625 C-51.91796875 85.4040625 -51.91796875 86.3940625 -51.91796875 87.4140625 C-53.35452729 87.49537713 -54.79241705 87.55339809 -56.23046875 87.6015625 C-57.43123047 87.65376953 -57.43123047 87.65376953 -58.65625 87.70703125 C-61.4996803 87.33871126 -62.16581202 86.64291389 -63.91796875 84.4140625 C-64.31910706 82.33387756 -64.31910706 82.33387756 -64.35375977 79.91430664 C-64.37289932 79.00648941 -64.39203888 78.09867218 -64.41175842 77.16334534 C-64.41509689 76.18518356 -64.41843536 75.20702179 -64.421875 74.19921875 C-64.4318602 73.19193222 -64.4418454 72.18464569 -64.45213318 71.14683533 C-64.46732446 69.01598217 -64.47435866 66.88505764 -64.47387695 64.75415039 C-64.48043809 61.49180744 -64.53490924 58.23250722 -64.59179688 54.97070312 C-64.60059896 52.90105209 -64.60655316 50.83138658 -64.609375 48.76171875 C-64.63093155 47.78558121 -64.6524881 46.80944366 -64.67469788 45.8037262 C-64.6075497 39.1763511 -64.6075497 39.1763511 -62.53561401 36.88595581 C-60.87475586 35.76733398 -60.87475586 35.76733398 -57.91796875 34.4140625 C-58.57796875 33.6096875 -59.23796875 32.8053125 -59.91796875 31.9765625 C-62.59404983 27.95767917 -62.63794709 24.09825891 -61.91796875 19.4140625 C-60.26916233 15.70424805 -57.9665099 13.08153601 -54.91796875 10.4140625 C-50.8533236 9.05918078 -47.16811664 8.87643695 -42.91796875 9.4140625 C-38.27371009 11.90820141 -34.60421853 14.35531317 -32.91796875 19.4140625 C-32.37854767 25.88711543 -33.32351628 29.0223838 -36.91796875 34.4140625 C-32.62796875 34.4140625 -28.33796875 34.4140625 -23.91796875 34.4140625 C-24.70171875 33.5065625 -25.48546875 32.5990625 -26.29296875 31.6640625 C-31.15047489 26.0395817 -31.46661075 21.26357057 -31.3671875 13.90625 C-30.53025434 7.40000439 -26.90286693 4.25718224 -22.29296875 -0.0234375 C-15.54869805 -4.4604577 -6.9683327 -3.39263834 0 0 Z " fill="#B292A0" transform="translate(99.91796875,20.5859375)"/>
<path d="M0 0 C1.32 0 2.64 0 4 0 C4.33 16.83 4.66 33.66 5 51 C5.33 51 5.66 51 6 51 C6.125 54.375 6.125 54.375 6 58 C5.34 58.66 4.68 59.32 4 60 C0.67695777 59.87325046 -0.71655991 59.26104985 -3.17578125 56.99609375 C-3.88089844 56.15175781 -4.58601563 55.30742188 -5.3125 54.4375 C-6.09109375 53.5403125 -6.8696875 52.643125 -7.671875 51.71875 C-8.44015625 50.8215625 -9.2084375 49.924375 -10 49 C-15.16039957 42.71976604 -15.16039957 42.71976604 -22.5 40 C-23.655 40 -24.81 40 -26 40 C-26.90238747 37.29283758 -27.11851302 35.76223232 -27.09765625 32.98828125 C-27.09443359 32.23095703 -27.09121094 31.47363281 -27.08789062 30.69335938 C-27.07951172 29.90767578 -27.07113281 29.12199219 -27.0625 28.3125 C-27.05798828 27.51521484 -27.05347656 26.71792969 -27.04882812 25.89648438 C-27.0370585 23.93095743 -27.01912348 21.96546915 -27 20 C-26.43659912 20.08121094 -25.87319824 20.16242188 -25.29272461 20.24609375 C-21.71566263 20.5402119 -19.05924843 20.68724591 -15.97705078 18.6875 C-14.05872078 16.87104168 -12.30046379 14.98953645 -10.5625 13 C-9.35943188 11.68386635 -8.1525915 10.37116763 -6.94140625 9.0625 C-6.42263916 8.47597656 -5.90387207 7.88945313 -5.36938477 7.28515625 C-4 6 -4 6 -2 6 C-1.67 11.94 -1.34 17.88 -1 24 C-0.67 16.08 -0.34 8.16 0 0 Z " fill="#8460B6" transform="translate(140,54)"/>
<path d="M0 0 C4.74732567 2.53807238 7.52075922 5.96918099 10.1796875 10.52734375 C11.5227363 15.89953893 10.70610416 21.17443058 8.1796875 26.08984375 C5.34189159 30.00140028 2.47887596 32.23266837 -2.0078125 34.02734375 C-8.76370867 34.82215506 -12.75060793 34.74779702 -18.3671875 30.734375 C-22.25040951 27.52985773 -23.85816609 25.1150185 -24.61328125 20.0625 C-24.96117582 13.9119865 -24.99563905 9.35659816 -20.8828125 4.52734375 C-15.08589957 -1.17047665 -7.80697724 -2.64522123 0 0 Z " fill="#020202" transform="translate(96.1328125,21.72265625)"/>
<path d="M0 0 C4.875 0.875 4.875 0.875 6 2 C6.09340434 3.62674778 6.11745171 5.25754051 6.11352539 6.88696289 C6.11341209 8.44846825 6.11341209 8.44846825 6.11329651 10.04151917 C6.10813522 11.1737944 6.10297394 12.30606964 6.09765625 13.47265625 C6.0962413 14.62543564 6.09482635 15.77821503 6.09336853 16.96592712 C6.08775005 20.66481064 6.07519442 24.36363464 6.0625 28.0625 C6.05748738 30.56315017 6.05292406 33.06380129 6.04882812 35.56445312 C6.03777462 41.70965588 6.02101852 47.85482369 6 54 C5.01 54.495 5.01 54.495 4 55 C4 37.84 4 20.68 4 3 C2.68 3 1.36 3 0 3 C0.01047363 3.71655762 0.02094727 4.43311523 0.03173828 5.17138672 C0.07321299 8.40588905 0.09929892 11.64033553 0.125 14.875 C0.14175781 16.00292969 0.15851563 17.13085938 0.17578125 18.29296875 C0.18222656 19.36933594 0.18867188 20.44570312 0.1953125 21.5546875 C0.20578613 22.54968262 0.21625977 23.54467773 0.22705078 24.56982422 C0 27 0 27 -2 29 C-2 22.4 -2 15.8 -2 9 C-3.93407198 10.66262328 -5.86239073 12.33250838 -7.7578125 14.0390625 C-10 16 -10 16 -12.0546875 17.4609375 C-15.6196661 20.2567091 -17.10433888 22.51057374 -17.65625 27 C-17.97661802 31.00304506 -18.0337348 34.98555896 -18 39 C-18.33 39 -18.66 39 -19 39 C-19 33.72 -19 28.44 -19 23 C-21.64 23 -24.28 23 -27 23 C-26.89171875 24.78857422 -26.89171875 24.78857422 -26.78125 26.61328125 C-26.68745339 28.17968471 -26.59370595 29.74609111 -26.5 31.3125 C-26.42845703 32.49102539 -26.42845703 32.49102539 -26.35546875 33.69335938 C-26.28779297 34.8293457 -26.28779297 34.8293457 -26.21875 35.98828125 C-26.17685547 36.68477783 -26.13496094 37.38127441 -26.09179688 38.09887695 C-25.92377605 41.57860611 -26.04447935 45.02483262 -26.25 48.5 C-26.29640625 49.4590625 -26.3428125 50.418125 -26.390625 51.40625 C-27 54 -27 54 -28.70562744 55.64082336 C-31.47625728 57.2821328 -33.11436026 57.36346886 -36.31933594 57.34057617 C-37.38013367 57.34034958 -38.4409314 57.34012299 -39.53387451 57.33988953 C-40.67253967 57.32440567 -41.81120483 57.30892181 -42.984375 57.29296875 C-44.15510559 57.28872391 -45.32583618 57.28447906 -46.53204346 57.28010559 C-50.27159616 57.26331175 -54.01061015 57.22565704 -57.75 57.1875 C-60.28514847 57.17245413 -62.82030538 57.15876556 -65.35546875 57.14648438 C-71.57049633 57.11340585 -77.78520968 57.06319883 -84 57 C-84 56.01 -84 55.02 -84 54 C-66.51 53.67 -49.02 53.34 -31 53 C-31 38.48 -31 23.96 -31 9 C-53.77 9 -76.54 9 -100 9 C-100 23.52 -100 38.04 -100 53 C-97.36 53.33 -94.72 53.66 -92 54 C-92 54.99 -92 55.98 -92 57 C-93.43655854 57.08131463 -94.8744483 57.13933559 -96.3125 57.1875 C-97.51326172 57.23970703 -97.51326172 57.23970703 -98.73828125 57.29296875 C-101.58182629 56.9246339 -102.24977513 56.23083957 -104 54 C-104.38768005 51.91308594 -104.38768005 51.91308594 -104.40405273 49.484375 C-104.41673691 48.57333008 -104.42942108 47.66228516 -104.44248962 46.72363281 C-104.43955399 45.74233398 -104.43661835 44.76103516 -104.43359375 43.75 C-104.4388356 42.7403418 -104.44407745 41.73068359 -104.44947815 40.69042969 C-104.45590278 38.5553479 -104.45455567 36.42023074 -104.44604492 34.28515625 C-104.43753221 31.01238233 -104.46629555 27.7413515 -104.49804688 24.46875 C-104.49965883 22.39583386 -104.49908146 20.32291462 -104.49609375 18.25 C-104.50732773 17.26870117 -104.51856171 16.28740234 -104.53013611 15.27636719 C-104.52075516 14.36532227 -104.51137421 13.45427734 -104.50170898 12.515625 C-104.50154282 11.71415039 -104.50137665 10.91267578 -104.50120544 10.08691406 C-104 8 -104 8 -102.09364319 6.21777344 C-100 5 -100 5 -98 5 C-98 5.66 -98 6.32 -98 7 C-81.5 6.67 -65 6.34 -48 6 C-48 5.34 -48 4.68 -48 4 C-45.24849263 4.08711104 -42.50018367 4.19399615 -39.75 4.3125 C-38.97269531 4.33505859 -38.19539063 4.35761719 -37.39453125 4.38085938 C-34.06498662 4.53737643 -31.52216865 4.76147852 -28.46875 6.15625 C-26.33227866 8.83820339 -26.60482194 10.81211 -26.75 14.1875 C-26.78609375 15.27417969 -26.8221875 16.36085938 -26.859375 17.48046875 C-26.90578125 18.31191406 -26.9521875 19.14335938 -27 20 C-21.60891992 20.12213558 -17.9739616 19.50145673 -13.9453125 15.76171875 C-12.65076331 14.4237548 -11.37745734 13.06494536 -10.125 11.6875 C-9.4753125 11.01009766 -8.825625 10.33269531 -8.15625 9.63476562 C-5.22555387 6.5502984 -2.51331389 3.43675559 0 0 Z " fill="#B991CB" transform="translate(140,51)"/>
<path d="M0 0 C0 15.18 0 30.36 0 46 C-2.31 44.02 -4.62 42.04 -7 40 C-7.80308594 39.44957031 -8.60617188 38.89914063 -9.43359375 38.33203125 C-13.33707596 35.3720808 -15.11174524 32.50548022 -15.9609375 27.71875 C-16.67643447 20.73787745 -16.65655618 14.55380747 -12.14453125 8.875 C-3.89027572 0 -3.89027572 0 0 0 Z " fill="#050406" transform="translate(138,60)"/>
<path d="M0 0 C2.91457862 1.85001093 5.4307246 3.86144919 7 7 C7.50872093 13.10465114 7.06705978 16.11952826 3 21 C-1.02612967 23.68408645 -4.26816918 23.80610406 -9 23 C-12.57339883 21.07643127 -14.69607513 18.9117746 -16 15 C-16.44992774 8.92597544 -15.4165311 5.81928628 -11.5 1.25 C-7.83009749 -1.80825209 -4.35955035 -1.03446958 0 0 Z " fill="#030303" transform="translate(57,33)"/>
<path d="M0 0 C0.98484375 -0.00128906 1.9696875 -0.00257812 2.984375 -0.00390625 C4.02078125 -0.00003906 5.0571875 0.00382812 6.125 0.0078125 C7.67960937 0.00201172 7.67960937 0.00201172 9.265625 -0.00390625 C10.25046875 -0.00261719 11.2353125 -0.00132813 12.25 0 C13.16007812 0.00112793 14.07015625 0.00225586 15.0078125 0.00341797 C17.125 0.1328125 17.125 0.1328125 18.125 1.1328125 C18.22323937 2.79710301 18.25473631 4.46563181 18.25 6.1328125 C18.25386719 7.4940625 18.25386719 7.4940625 18.2578125 8.8828125 C18.125 11.1328125 18.125 11.1328125 17.125 12.1328125 C15.50242456 12.2319782 13.87560169 12.26361027 12.25 12.265625 C11.26515625 12.26691406 10.2803125 12.26820312 9.265625 12.26953125 C8.22921875 12.26566406 7.1928125 12.26179688 6.125 12.2578125 C4.57039063 12.26361328 4.57039063 12.26361328 2.984375 12.26953125 C1.99953125 12.26824219 1.0146875 12.26695313 0 12.265625 C-0.91007812 12.26449707 -1.82015625 12.26336914 -2.7578125 12.26220703 C-4.875 12.1328125 -4.875 12.1328125 -5.875 11.1328125 C-5.97323937 9.46852199 -6.00473631 7.79999319 -6 6.1328125 C-6.00257812 5.2253125 -6.00515625 4.3178125 -6.0078125 3.3828125 C-5.76235164 -0.77558328 -3.65535128 0.00453036 0 0 Z " fill="#9A74C8" transform="translate(52.875,64.8671875)"/>
<path d="M0 0 C0.33 0 0.66 0 1 0 C1.33 10.89 1.66 21.78 2 33 C2.33 33 2.66 33 3 33 C3.10815225 34.76949095 3.18566083 36.54087487 3.25 38.3125 C3.29640625 39.29863281 3.3428125 40.28476563 3.390625 41.30078125 C3 44 3 44 1.30804443 45.64741516 C-1.46979095 47.27531191 -3.11466259 47.3634667 -6.31933594 47.34057617 C-7.38013367 47.34034958 -8.4409314 47.34012299 -9.53387451 47.33988953 C-10.67253967 47.32440567 -11.81120483 47.30892181 -12.984375 47.29296875 C-14.15510559 47.28872391 -15.32583618 47.28447906 -16.53204346 47.28010559 C-20.27159616 47.26331175 -24.01061015 47.22565704 -27.75 47.1875 C-30.28514847 47.17245413 -32.82030538 47.15876556 -35.35546875 47.14648438 C-41.57049633 47.11340585 -47.78520968 47.06319883 -54 47 C-54 46.01 -54 45.02 -54 44 C-36.51 43.67 -19.02 43.34 -1 43 C-0.67 28.81 -0.34 14.62 0 0 Z " fill="#8665B8" transform="translate(110,61)"/>
<path d="M0 0 C4.70588235 0.70588235 4.70588235 0.70588235 6 2 C6.09340434 3.62674778 6.11745171 5.25754051 6.11352539 6.88696289 C6.11344986 7.92796646 6.11337433 8.96897003 6.11329651 10.04151917 C6.10813522 11.1737944 6.10297394 12.30606964 6.09765625 13.47265625 C6.0962413 14.62543564 6.09482635 15.77821503 6.09336853 16.96592712 C6.08775005 20.66481064 6.07519442 24.36363464 6.0625 28.0625 C6.05748738 30.56315017 6.05292406 33.06380129 6.04882812 35.56445312 C6.03777462 41.70965588 6.02101852 47.85482369 6 54 C5.01 54.495 5.01 54.495 4 55 C4 37.84 4 20.68 4 3 C2.68 3 1.36 3 0 3 C0.01047363 3.71655762 0.02094727 4.43311523 0.03173828 5.17138672 C0.07321299 8.40588905 0.09929892 11.64033553 0.125 14.875 C0.14175781 16.00292969 0.15851563 17.13085938 0.17578125 18.29296875 C0.18222656 19.36933594 0.18867188 20.44570312 0.1953125 21.5546875 C0.20578613 22.54968262 0.21625977 23.54467773 0.22705078 24.56982422 C0 27 0 27 -2 29 C-2 22.07 -2 15.14 -2 8 C-2.66 7.67 -3.32 7.34 -4 7 C-1.125 1.125 -1.125 1.125 0 0 Z " fill="#9E74D5" transform="translate(140,51)"/>
<path d="M0 0 C0.99 0 1.98 0 3 0 C3 18.81 3 37.62 3 57 C2.01 57 1.02 57 0 57 C0 38.19 0 19.38 0 0 Z " fill="#171220" transform="translate(141,54)"/>
<path d="M0 0 C0.66 1.32 1.32 2.64 2 4 C1.50371094 4.42410156 1.00742188 4.84820312 0.49609375 5.28515625 C-0.93534407 6.52102762 -2.35239151 7.77368346 -3.7578125 9.0390625 C-6 11 -6 11 -8.0546875 12.4609375 C-11.6196661 15.2567091 -13.10433888 17.51057374 -13.65625 22 C-13.97661802 26.00304506 -14.0337348 29.98555896 -14 34 C-14.33 34 -14.66 34 -15 34 C-15 28.72 -15 23.44 -15 18 C-17.64 18 -20.28 18 -23 18 C-22.9278125 19.19238281 -22.855625 20.38476562 -22.78125 21.61328125 C-22.68745339 23.17968471 -22.59370595 24.74609111 -22.5 26.3125 C-22.45230469 27.09818359 -22.40460938 27.88386719 -22.35546875 28.69335938 C-22.31035156 29.45068359 -22.26523438 30.20800781 -22.21875 30.98828125 C-22.17685547 31.68477783 -22.13496094 32.38127441 -22.09179688 33.09887695 C-22.01299029 34.73096966 -22 36.36600579 -22 38 C-22.66 38 -23.32 38 -24 38 C-24 40.64 -24 43.28 -24 46 C-24.33 46 -24.66 46 -25 46 C-25 35.44 -25 24.88 -25 14 C-21.37 14 -17.74 14 -14 14 C-10.8465828 11.66545884 -8.79679287 9.88211356 -6.3125 7 C-5.69439453 6.33226562 -5.07628906 5.66453125 -4.43945312 4.9765625 C-2.93139073 3.33990564 -1.45502911 1.6837268 0 0 Z " fill="#9C75D3" transform="translate(136,56)"/>
<path d="M0 0 C4.64425866 2.49413891 8.31375022 4.94125067 10 10 C10.53942108 16.47305293 9.59445247 19.6083213 6 25 C5.01 24.34 4.02 23.68 3 23 C3.495 22.34 3.99 21.68 4.5 21 C6.4057352 17.1885296 6.77154332 14.18837802 6 10 C3.93033136 6.5998301 1.89474294 4.08187304 -2 3 C-5.94160792 2.93484946 -9.01757771 3.37952277 -12.375 5.5 C-14.3840637 8.59086723 -14.87549772 11.36010815 -15.41015625 14.9765625 C-16 17 -16 17 -19 19 C-19.56164384 9.45205479 -19.56164384 9.45205479 -16 5 C-11.38269025 -0.19447347 -6.70840514 -0.84858458 0 0 Z " fill="#C09BAC" transform="translate(57,30)"/>
<path d="M0 0 C0.2475 0.53625 0.495 1.0725 0.75 1.625 C2.98609906 5.87358821 4.96811275 9.31207517 9 12 C13.68387647 12.51750695 18.43879688 12.17708468 23 11 C23 11.66 23 12.32 23 13 C27.95 13 32.9 13 38 13 C38 12.34 38 11.68 38 11 C45.425 11.99 45.425 11.99 53 13 C49.79954524 15.13363651 49.01370564 15.24672228 45.3449707 15.22705078 C43.93384758 15.22682419 43.93384758 15.22682419 42.49421692 15.22659302 C41.48163315 15.21627045 40.46904938 15.20594788 39.42578125 15.1953125 C37.86732735 15.19106766 37.86732735 15.19106766 36.27738953 15.18673706 C32.95564303 15.17553282 29.63416515 15.15042764 26.3125 15.125 C24.06185285 15.11497052 21.81120148 15.10584462 19.56054688 15.09765625 C14.04027278 15.0755927 8.52015558 15.04211271 3 15 C2.814375 14.1028125 2.814375 14.1028125 2.625 13.1875 C2.04524015 10.73768652 2.04524015 10.73768652 0 8 C-0.25760279 5.30547479 -0.08900053 2.71451625 0 0 Z " fill="#BC93D0" transform="translate(39,43)"/>
<path d="M0 0 C11.6453219 -0.75810414 11.6453219 -0.75810414 16.4296875 2.55859375 C20.64001122 6.42329389 23.57745222 10.3019285 24.4765625 16.04296875 C24.72670122 25.19577199 21.89170888 30.31211424 16 37 C14.35 36.67 12.7 36.34 11 36 C11.7425 35.484375 12.485 34.96875 13.25 34.4375 C18.35216036 29.91513059 20.68187212 25.00114137 21.1640625 18.2734375 C20.78268261 12.98860191 18.26099756 9.19794768 14.5 5.625 C13.2625 4.820625 13.2625 4.820625 12 4 C11.1028125 3.4121875 11.1028125 3.4121875 10.1875 2.8125 C6.85082088 1.57316204 3.53749824 1.35374982 0 1 C0 0.67 0 0.34 0 0 Z " fill="#B08FBB" transform="translate(85,19)"/>
<path d="M0 0 C0.33 0 0.66 0 1 0 C1.33 14.19 1.66 28.38 2 43 C4.64 43.33 7.28 43.66 10 44 C10 44.99 10 45.98 10 47 C8.56344146 47.08131463 7.1255517 47.13933559 5.6875 47.1875 C4.48673828 47.23970703 4.48673828 47.23970703 3.26171875 47.29296875 C1 47 1 47 -0.62084961 45.81713867 C-2.5012102 43.3396163 -2.35825951 41.7216002 -2.328125 38.6328125 C-2.32296875 37.58222656 -2.3178125 36.53164062 -2.3125 35.44921875 C-2.291875 34.35222656 -2.27125 33.25523438 -2.25 32.125 C-2.24484375 31.03574219 -2.2396875 29.94648437 -2.234375 28.82421875 C-2.18769118 24.0566333 -1.99333952 19.66922181 -1 15 C-0.78118981 12.3931873 -0.58987147 9.79779811 -0.4375 7.1875 C-0.39431641 6.49462891 -0.35113281 5.80175781 -0.30664062 5.08789062 C-0.20138547 3.39211314 -0.10027137 1.69607948 0 0 Z " fill="#7458A3" transform="translate(38,61)"/>
<path d="M0 0 C2.31 0 4.62 0 7 0 C7 5.61 7 11.22 7 17 C4.69 17 2.38 17 0 17 C0 11.39 0 5.78 0 0 Z " fill="#09070B" transform="translate(113,74)"/>
<path d="M0 0 C5.94 0 11.88 0 18 0 C18 1.98 18 3.96 18 6 C12.06 6 6.12 6 0 6 C0 4.02 0 2.04 0 0 Z " fill="#030203" transform="translate(50,68)"/>
<path d="M0 0 C0.33 0 0.66 0 1 0 C1.01417969 0.70125 1.02835937 1.4025 1.04296875 2.125 C1.39436857 9.1150072 2.79486493 13.44555368 7 19 C7.66 19.99 8.32 20.98 9 22 C4.05 22 -0.9 22 -6 22 C-5.38125 20.96875 -4.7625 19.9375 -4.125 18.875 C-1.11607014 12.96383992 -0.69535967 6.51442216 0 0 Z " fill="#0B090B" transform="translate(68,34)"/>
<path d="M0 0 C0 0.66 0 1.32 0 2 C12.87 2 25.74 2 39 2 C39 2.33 39 2.66 39 3 C37.14483765 3.03758423 37.14483765 3.03758423 35.25219727 3.07592773 C30.68063287 3.16982253 26.10922682 3.27008629 21.5378418 3.37231445 C19.55610854 3.41573144 17.57433622 3.45740137 15.5925293 3.49731445 C12.7503683 3.55485383 9.90840517 3.61859445 7.06640625 3.68359375 C6.17474258 3.70030624 5.28307892 3.71701874 4.36439514 3.73423767 C0.36051605 3.436587 0.36051605 3.436587 -3 5 C-3.21259101 7.42117545 -3.37664599 9.82403778 -3.5 12.25 C-3.72489412 16.57296476 -4.01623971 20.76983077 -5 25 C-5.33 25 -5.66 25 -6 25 C-6.11601004 21.39610336 -6.18718408 17.79268533 -6.25 14.1875 C-6.28351562 13.16333984 -6.31703125 12.13917969 -6.3515625 11.08398438 C-6.36445312 10.10107422 -6.37734375 9.11816406 -6.390625 8.10546875 C-6.41157227 7.19949951 -6.43251953 6.29353027 -6.45410156 5.36010742 C-6 3 -6 3 -4.10058594 1.1809082 C-2 0 -2 0 0 0 Z " fill="#A781C2" transform="translate(42,56)"/>
<path d="M0 0 C0.66 1.32 1.32 2.64 2 4 C0.07719019 5.68807719 -1.84874637 7.37107144 -3.7890625 9.0390625 C-5.97608463 10.92803526 -5.97608463 10.92803526 -7.7734375 12.8359375 C-11.86860068 16.93110068 -11.86860068 16.93110068 -15.4375 17.1484375 C-17.68228615 16.90291402 -19.8104221 16.54615322 -22 16 C-22 15.67 -22 15.34 -22 15 C-20.8346875 14.98066406 -19.669375 14.96132812 -18.46875 14.94140625 C-12.89390791 14.24455099 -10.14524277 10.93866239 -6.5 6.9375 C-5.86835938 6.27427734 -5.23671875 5.61105469 -4.5859375 4.92773438 C-3.04011755 3.29993912 -1.5130653 1.65818434 0 0 Z " fill="#9273B4" transform="translate(136,56)"/>
<path d="M0 0 C0.91644287 0.00523682 1.83288574 0.01047363 2.77709961 0.01586914 C3.76645508 0.0190918 4.75581055 0.02231445 5.77514648 0.02563477 C6.81606445 0.03401367 7.85698242 0.04239258 8.92944336 0.05102539 C10.49662109 0.05779297 10.49662109 0.05779297 12.09545898 0.06469727 C14.68600996 0.07652627 17.27644895 0.0930085 19.86694336 0.11352539 C18.29396422 1.97915181 17.41184119 3.01590982 14.96582031 3.45410156 C14.26932373 3.43839111 13.57282715 3.42268066 12.85522461 3.40649414 C12.09790039 3.39682617 11.34057617 3.3871582 10.56030273 3.37719727 C9.77461914 3.35206055 8.98893555 3.32692383 8.17944336 3.30102539 C6.98351562 3.28072266 6.98351562 3.28072266 5.76342773 3.26000977 C3.79764369 3.22469628 1.83220753 3.17088986 -0.13305664 3.11352539 C-0.07118164 4.06227539 -0.00930664 5.01102539 0.05444336 5.98852539 C-0.00743164 7.01977539 -0.06930664 8.05102539 -0.13305664 9.11352539 C-1.12305664 9.77352539 -2.11305664 10.43352539 -3.13305664 11.11352539 C-3.15993815 9.46777973 -3.17939787 7.82191126 -3.19555664 6.17602539 C-3.2071582 5.25950195 -3.21875977 4.34297852 -3.23071289 3.39868164 C-3.10292275 0.40839229 -2.9841254 0.15882091 0 0 Z " fill="#8B6DAC" transform="translate(50.133056640625,64.886474609375)"/>
<path d="M0 0 C4.875 0.875 4.875 0.875 6 2 C6.25035974 5.30516934 6.18521952 8.62396041 6.1875 11.9375 C6.19974609 12.87013672 6.21199219 13.80277344 6.22460938 14.76367188 C6.22654297 15.65505859 6.22847656 16.54644531 6.23046875 17.46484375 C6.23457764 18.285896 6.23868652 19.10694824 6.24291992 19.95288086 C6 22 6 22 4 24 C4 17.07 4 10.14 4 3 C2.35 2.67 0.7 2.34 -1 2 C-0.67 1.34 -0.34 0.68 0 0 Z " fill="#A784C1" transform="translate(140,51)"/>
<path d="M0 0 C0.7425 0.2475 1.485 0.495 2.25 0.75 C1.486875 1.306875 0.72375 1.86375 -0.0625 2.4375 C-3.74700647 5.60788929 -5.49215211 8.10621968 -6.25 12.9375 C-6.415 13.865625 -6.58 14.79375 -6.75 15.75 C-7.74 16.41 -8.73 17.07 -9.75 17.75 C-10.31164384 8.20205479 -10.31164384 8.20205479 -6.75 3.75 C-6.13125 2.96625 -5.5125 2.1825 -4.875 1.375 C-2.75 -0.25 -2.75 -0.25 0 0 Z " fill="#B694A5" transform="translate(47.75,31.25)"/>
<path d="M0 0 C7.25666421 -0.4724049 12.09596354 -0.45814998 18 4 C20.4375 6.75 20.4375 6.75 22 9 C21.34 10.32 20.68 11.64 20 13 C19.505 12.113125 19.01 11.22625 18.5 10.3125 C15.43560437 5.75906705 11.06819546 2.70965065 5.703125 1.46875 C3.81102832 1.22720574 1.90472087 1.10203862 0 1 C0 0.67 0 0.34 0 0 Z " fill="#C8A9B8" transform="translate(85,19)"/>
<path d="M0 0 C4.01268958 0.54424985 5.98416846 2.52072201 8.8125 5.3125 C9.62332031 6.09238281 10.43414062 6.87226562 11.26953125 7.67578125 C11.84058594 8.44277344 12.41164062 9.20976563 13 10 C12.6081543 12.14526367 12.6081543 12.14526367 12 14 C9.99387601 12.04761147 7.99507567 10.08862178 6 8.125 C5.42765625 7.56941406 4.8553125 7.01382813 4.265625 6.44140625 C2.80549218 4.99865596 1.39850702 3.5025626 0 2 C0 1.34 0 0.68 0 0 Z " fill="#8663BF" transform="translate(124,95)"/>
<path d="M0 0 C0.33 0 0.66 0 1 0 C1.01417969 0.71285156 1.02835937 1.42570312 1.04296875 2.16015625 C1.3741697 8.81102945 2.27524391 13.17910062 7 18 C9.14176007 19.88303962 9.14176007 19.88303962 11 21 C8.3125 21.375 8.3125 21.375 5 21 C1.83655172 17.90685057 -0.31620731 15.38899496 -1 11 C-0.91685386 9.07959244 -0.76727868 7.16126769 -0.5625 5.25 C-0.46066406 4.26515625 -0.35882813 3.2803125 -0.25390625 2.265625 C-0.17011719 1.51796875 -0.08632812 0.7703125 0 0 Z " fill="#A184A4" transform="translate(71,34)"/>
<path d="M0 0 C0.99 0 1.98 0 3 0 C3 4.62 3 9.24 3 14 C2.01 14.33 1.02 14.66 0 15 C0 10.05 0 5.1 0 0 Z " fill="#8162A8" transform="translate(41,69)"/>
<path d="M0 0 C0.33 0 0.66 0 1 0 C1.16781295 2.60409745 1.33429651 5.2082682 1.5 7.8125 C1.54769531 8.55048828 1.59539062 9.28847656 1.64453125 10.04882812 C1.83390613 13.03824588 2 16.00374574 2 19 C1.34 19 0.68 19 0 19 C0 21.64 0 24.28 0 27 C-0.33 27 -0.66 27 -1 27 C-1.02932572 23.81251971 -1.04690739 20.62507472 -1.0625 17.4375 C-1.07087891 16.54224609 -1.07925781 15.64699219 -1.08789062 14.72460938 C-1.10629571 9.70002057 -0.86266398 4.95182709 0 0 Z " fill="#956CD7" transform="translate(112,75)"/>
<path d="M0 0 C3.1648567 -0.21578568 5.3469377 -0.34519007 8.1875 1.15625 C10 3 10 3 10.390625 5.69921875 C10.32101563 7.17841797 10.32101563 7.17841797 10.25 8.6875 C10.21390625 9.68136719 10.1778125 10.67523438 10.140625 11.69921875 C10.07101563 12.83810547 10.07101563 12.83810547 10 14 C9.34 14 8.68 14 8 14 C7.67 11.03 7.34 8.06 7 5 C6.21625 4.731875 5.4325 4.46375 4.625 4.1875 C2 3 2 3 0 0 Z " fill="#AA88C5" transform="translate(103,56)"/>
<path d="M0 0 C7.425 0.99 7.425 0.99 15 2 C11.36804504 4.42130331 9.61650652 4.21022785 5.3125 4.125 C4.13300781 4.10695313 2.95351562 4.08890625 1.73828125 4.0703125 C0.83464844 4.04710937 -0.06898437 4.02390625 -1 4 C-0.67 2.68 -0.34 1.36 0 0 Z " fill="#C796D8" transform="translate(77,54)"/>
<path d="M0 0 C0.66 0 1.32 0 2 0 C3.36271133 2.72542267 3.16923601 4.96087274 3.1875 8 C3.20167969 9.0725 3.21585937 10.145 3.23046875 11.25 C3 14 3 14 1 16 C0.14701624 12.32612505 -0.10789471 8.9552607 -0.0625 5.1875 C-0.05347656 4.21167969 -0.04445313 3.23585937 -0.03515625 2.23046875 C-0.02355469 1.49441406 -0.01195313 0.75835938 0 0 Z " fill="#BF9EB2" transform="translate(106,30)"/>
<path d="M0 0 C0.33 0 0.66 0 1 0 C1.45356243 6.46326465 0.59378942 9.60931587 -3 15 C-3.99 14.34 -4.98 13.68 -6 13 C-5.525625 12.29875 -5.05125 11.5975 -4.5625 10.875 C-2.90793689 7.83060387 -2.52751255 5.39115208 -2 2 C-1.34 1.34 -0.68 0.68 0 0 Z " fill="#A084A2" transform="translate(66,40)"/>
<path d="M0 0 C1.09651823 3.41139003 0.94215473 6.20655581 0.5625 9.75 C0.40974609 11.22726563 0.40974609 11.22726563 0.25390625 12.734375 C0.12822266 13.85585938 0.12822266 13.85585938 0 15 C-0.66 15 -1.32 15 -2 15 C-2 10.38 -2 5.76 -2 1 C-1.34 0.67 -0.68 0.34 0 0 Z " fill="#D0AAC0" transform="translate(71,30)"/>
<path d="M0 0 C0.33 0 0.66 0 1 0 C1.125 3.375 1.125 3.375 1 7 C0.34 7.66 -0.32 8.32 -1 9 C-3.625 8.625 -3.625 8.625 -6 8 C-5.34 7.01 -4.68 6.02 -4 5 C-3.01 5.33 -2.02 5.66 -1 6 C-1.020625 5.195625 -1.04125 4.39125 -1.0625 3.5625 C-1 1 -1 1 0 0 Z " fill="#8561C0" transform="translate(145,105)"/>
<path d="M0 0 C0.99 0.33 1.98 0.66 3 1 C2.67 5.62 2.34 10.24 2 15 C1.67 15 1.34 15 1 15 C0.8046875 12.98177083 0.609375 10.96354167 0.4140625 8.9453125 C0.13625251 6.77331755 0.13625251 6.77331755 -2 5 C-1.34 3.35 -0.68 1.7 0 0 Z " fill="#BA8DD3" transform="translate(138,53)"/>
<path d="M0 0 C1.74965358 -0.05429959 3.49979787 -0.09292823 5.25 -0.125 C6.22453125 -0.14820312 7.1990625 -0.17140625 8.203125 -0.1953125 C11.0196498 0.00137219 12.60949036 0.55431084 15 2 C15 2.66 15 3.32 15 4 C9.125 3.125 9.125 3.125 8 2 C6.65252916 1.76924918 5.29622435 1.58846937 3.9375 1.4375 C2.638125 1.293125 1.33875 1.14875 0 1 C0 0.67 0 0.34 0 0 Z " fill="#D6AFC1" transform="translate(85,19)"/>
<path d="M0 0 C0.66 1.32 1.32 2.64 2 4 C-0.97 6.475 -0.97 6.475 -4 9 C-4.66 8.67 -5.32 8.34 -6 8 C-4.26440562 4.942048 -2.61527381 2.36620011 0 0 Z " fill="#9F7EB4" transform="translate(136,56)"/>
<path d="M0 0 C1.66666667 3.33333333 3.33333333 6.66666667 5 10 C4.34 10.66 3.68 11.32 3 12 C1.09598862 10.09598862 0.06479561 8.66574314 -0.19921875 5.953125 C-0.1886578 3.96766727 -0.09915043 1.9830086 0 0 Z " fill="#B893BE" transform="translate(39,43)"/>
<path d="M0 0 C1.485 0.99 1.485 0.99 3 2 C2.51171875 8.0546875 2.51171875 8.0546875 2 10 C1.01 10.66 0.02 11.32 -1 12 C-1.02712066 10.56260487 -1.04645067 9.12506137 -1.0625 7.6875 C-1.07410156 6.88699219 -1.08570313 6.08648437 -1.09765625 5.26171875 C-1 3 -1 3 0 0 Z " fill="#9C8095" transform="translate(39,37)"/>
<path d="M0 0 C1.98 0.99 1.98 0.99 4 2 C3.01 3.485 3.01 3.485 2 5 C1.60612212 7.32387947 1.26513915 9.65793749 1 12 C0.67 12 0.34 12 0 12 C0 8.04 0 4.08 0 0 Z " fill="#A87CD8" transform="translate(111,70)"/>
<path d="M0 0 C0 0.66 0 1.32 0 2 C0.99 2.33 1.98 2.66 3 3 C0.69 3.66 -1.62 4.32 -4 5 C-4.66 4.34 -5.32 3.68 -6 3 C-2.25 0 -2.25 0 0 0 Z " fill="#9A7DAE" transform="translate(42,56)"/>
<path d="M0 0 C0.66 0.33 1.32 0.66 2 1 C2 4.3 2 7.6 2 11 C1.67 11 1.34 11 1 11 C0.63743142 9.5437328 0.28520207 8.08488815 -0.0625 6.625 C-0.35833984 5.40683594 -0.35833984 5.40683594 -0.66015625 4.1640625 C-1 2 -1 2 0 0 Z " fill="#B28EA8" transform="translate(64,36)"/>
<path d="M0 0 C0.6875 1.8125 0.6875 1.8125 1 4 C-0.3125 5.75 -0.3125 5.75 -2 7 C-2.66 7 -3.32 7 -4 7 C-2.92598892 4.08482708 -2.22189824 2.22189824 0 0 Z " fill="#C8A4B4" transform="translate(74,24)"/>
</svg>
