<?xml version="1.0" encoding="UTF-8"?>
<svg version="1.1" xmlns="http://www.w3.org/2000/svg" width="151" height="113">
<path d="M0 0 C49.83 0 99.66 0 151 0 C151 37.29 151 74.58 151 113 C101.17 113 51.34 113 0 113 C0 75.71 0 38.42 0 0 Z " fill="#000000" transform="translate(0,0)"/>
<path d="M0 0 C3.51483623 2.05032114 5.70332836 4.10998507 7 8 C7.125 10.75 7.125 10.75 7 13 C6.01 13 5.02 13 4 13 C3.89042969 12.43410156 3.78085938 11.86820313 3.66796875 11.28515625 C3.50941406 10.55167969 3.35085937 9.81820313 3.1875 9.0625 C3.03667969 8.33160156 2.88585937 7.60070312 2.73046875 6.84765625 C2.48941406 6.23792969 2.24835938 5.62820312 2 5 C-1.72293834 3.75902055 -5.13216828 3.48532884 -9 4 C-11.66177841 5.15925538 -11.66177841 5.15925538 -13 8 C-13.61645983 11.66187674 -13.87211507 15.29133709 -14 19 C-12.68 19.33 -11.36 19.66 -10 20 C-10 20.99 -10 21.98 -10 23 C-6.7 23 -3.4 23 0 23 C0.33 21.68 0.66 20.36 1 19 C2.45792884 18.94600264 3.91642712 18.90720823 5.375 18.875 C6.59316406 18.84019531 6.59316406 18.84019531 7.8359375 18.8046875 C10 19 10 19 12 21 C12.04125 22.216875 12.0825 23.43375 12.125 24.6875 C12.39682703 27.53399056 12.71241812 28.69522932 14.69921875 30.80078125 C16.12218778 31.94494304 17.55340416 33.07891436 18.9921875 34.203125 C23.50112001 38.23835643 25.76623154 44.4463015 26.30859375 50.37109375 C26.76481443 60.84472826 25.30541924 68.98500823 18.1015625 77.15234375 C16.15972866 78.96753625 14.18705213 80.49299095 12 82 C11.16275391 82.64775391 11.16275391 82.64775391 10.30859375 83.30859375 C3.65867317 87.60798312 -5.39774556 86.87866219 -13 86 C-16.46966532 85.18784842 -19.06718216 84.00508975 -22 82 C-22.69351563 81.53722656 -23.38703125 81.07445313 -24.1015625 80.59765625 C-30.41995218 75.75829037 -35.04183785 68.99970692 -36.31347656 61.03710938 C-37.21258972 51.53994425 -36.16035266 43.4112382 -30.24609375 35.71875 C-25.73211568 30.36605784 -25.73211568 30.36605784 -23 29 C-22.74280183 26.97456444 -22.49157878 24.94649776 -22.34375 22.91015625 C-22 21 -22 21 -20 19 C-19.01 19 -18.02 19 -17 19 C-17.04640625 18.27554687 -17.0928125 17.55109375 -17.140625 16.8046875 C-17.37046287 10.64831587 -17.31129905 6.80401894 -13 2 C-8.7567553 -0.8288298 -4.98265471 -0.65268001 0 0 Z " fill="#050407" transform="translate(76,12)"/>
<path d="M0 0 C6.16259113 2.77733798 11.07967616 8.06346134 13.58203125 14.34765625 C14.53378082 21.83141342 14.16842659 28.14801931 10.00390625 34.546875 C8.08680844 36.97484777 6.19690947 38.68944079 3.58203125 40.34765625 C2.73640625 40.92515625 1.89078125 41.50265625 1.01953125 42.09765625 C-5.3440342 44.41168005 -12.52962401 44.57957159 -18.79296875 41.78515625 C-24.46673881 38.45181634 -28.40020602 33.59267755 -30.41796875 27.34765625 C-31.28785845 20.19624727 -31.32385125 13.91745314 -26.9140625 7.99609375 C-19.4011931 -0.28179368 -11.07491513 -2.98790117 0 0 Z " fill="#AAB6F8" transform="translate(79.41796875,45.65234375)"/>
<path d="M0 0 C3.51483623 2.05032114 5.70332836 4.10998507 7 8 C7.125 10.75 7.125 10.75 7 13 C6.01 13 5.02 13 4 13 C3.89042969 12.43410156 3.78085938 11.86820313 3.66796875 11.28515625 C3.50941406 10.55167969 3.35085937 9.81820313 3.1875 9.0625 C3.03667969 8.33160156 2.88585937 7.60070312 2.73046875 6.84765625 C2.48941406 6.23792969 2.24835938 5.62820312 2 5 C-1.62703026 3.79098991 -5.24017363 3.21339525 -9 4 C-12.20601256 6.27541776 -12.91983059 7.5457067 -13.609375 11.453125 C-13.67898437 13.33257813 -13.67898437 13.33257813 -13.75 15.25 C-13.80671875 16.51328125 -13.8634375 17.7765625 -13.921875 19.078125 C-13.94765625 20.04234375 -13.9734375 21.0065625 -14 22 C-15.32 22 -16.64 22 -18 22 C-18 23.32 -18 24.64 -18 26 C-16.68 26 -15.36 26 -14 26 C-14 26.66 -14 27.32 -14 28 C-15.50622413 28.93469245 -17.05743623 29.79728934 -18.625 30.625 C-25.32345993 34.50555257 -29.6245118 39.58462467 -32 47 C-33.00986312 57.38045343 -31.84814982 64.95290743 -26.25 73.75 C-19.60843726 80.39156274 -13.0961559 82.28913056 -3.83813477 82.3190918 C1.93409676 82.21146568 6.16653911 81.09707053 11 78 C11.85851562 77.45666016 11.85851562 77.45666016 12.734375 76.90234375 C17.87102697 73.15157066 20.05121748 67.84634757 22 62 C22.7843905 52.75539769 22.74335156 44.70590385 17 37 C13.19560784 32.84171089 9.07741548 30.41781689 4 28 C3.505 27.01 3.505 27.01 3 26 C4.65 26 6.3 26 8 26 C8 24.68 8 23.36 8 22 C6.02 22 4.04 22 2 22 C2 23.32 2 24.64 2 26 C-2.62 26 -7.24 26 -12 26 C-11.67 25.01 -11.34 24.02 -11 23 C-7.7 23 -4.4 23 -1 23 C-0.34 21.68 0.32 20.36 1 19 C2.45792884 18.94600264 3.91642712 18.90720823 5.375 18.875 C6.59316406 18.84019531 6.59316406 18.84019531 7.8359375 18.8046875 C10 19 10 19 12 21 C12.04125 22.216875 12.0825 23.43375 12.125 24.6875 C12.39682703 27.53399056 12.71241812 28.69522932 14.69921875 30.80078125 C16.12218778 31.94494304 17.55340416 33.07891436 18.9921875 34.203125 C23.50112001 38.23835643 25.76623154 44.4463015 26.30859375 50.37109375 C26.76481443 60.84472826 25.30541924 68.98500823 18.1015625 77.15234375 C16.15972866 78.96753625 14.18705213 80.49299095 12 82 C11.16275391 82.64775391 11.16275391 82.64775391 10.30859375 83.30859375 C3.65867317 87.60798312 -5.39774556 86.87866219 -13 86 C-16.46966532 85.18784842 -19.06718216 84.00508975 -22 82 C-22.69351563 81.53722656 -23.38703125 81.07445313 -24.1015625 80.59765625 C-30.41995218 75.75829037 -35.04183785 68.99970692 -36.31347656 61.03710938 C-37.21258972 51.53994425 -36.16035266 43.4112382 -30.24609375 35.71875 C-25.73211568 30.36605784 -25.73211568 30.36605784 -23 29 C-22.74280183 26.97456444 -22.49157878 24.94649776 -22.34375 22.91015625 C-22 21 -22 21 -20 19 C-19.01 19 -18.02 19 -17 19 C-17.04640625 18.27554687 -17.0928125 17.55109375 -17.140625 16.8046875 C-17.37046287 10.64831587 -17.31129905 6.80401894 -13 2 C-8.7567553 -0.8288298 -4.98265471 -0.65268001 0 0 Z " fill="#7E2BA6" transform="translate(76,12)"/>
<path d="M0 0 C2 1 2 1 3 3 C3.39862846 5.73345229 3.44441973 8.26999308 3 11 C1.5625 12.5625 1.5625 12.5625 0 14 C-0.73041853 17.61023099 -0.73041853 17.61023099 -1 21 C-2.65614657 21.38218767 -4.32457024 21.71395102 -6 22 C-7 21 -7 21 -7.375 17.625 C-7.60893812 14.06637528 -7.60893812 14.06637528 -9.5625 12.5625 C-11.37483103 10.59257497 -11.28409309 9.63630037 -11.375 7 C-11.25931045 4.5794187 -11.09100847 3.18201693 -10 1 C-6.73794446 -0.63102777 -3.56444611 -0.51981506 0 0 Z " fill="#030304" transform="translate(75,57)"/>
<path d="M0 0 C1.45792884 -0.05399736 2.91642712 -0.09279177 4.375 -0.125 C5.18710938 -0.14820312 5.99921875 -0.17140625 6.8359375 -0.1953125 C9 0 9 0 11 2 C11.04125 3.216875 11.0825 4.43375 11.125 5.6875 C11.39682703 8.53399056 11.71241812 9.69522932 13.69921875 11.80078125 C15.12218778 12.94494304 16.55340416 14.07891436 17.9921875 15.203125 C21.84260713 18.64902583 23.39949221 23.19847664 25 28 C25.1196943 30.18511688 25.17527453 32.37414147 25.1875 34.5625 C25.20167969 35.71878906 25.21585938 36.87507813 25.23046875 38.06640625 C25 41 25 41 23 43 C22.97421875 42.24976563 22.9484375 41.49953125 22.921875 40.7265625 C22.36838728 30.73862503 20.31579587 22.14566108 13 15 C10.72384195 13.54407909 8.37538524 12.29566468 6 11 C3.5625 8.75 3.5625 8.75 2 7 C3.65 7 5.3 7 7 7 C7 5.68 7 4.36 7 3 C5.02 3 3.04 3 1 3 C1 4.32 1 5.64 1 7 C-3.62 7 -8.24 7 -13 7 C-12.67 6.01 -12.34 5.02 -12 4 C-8.7 4 -5.4 4 -2 4 C-1.34 2.68 -0.68 1.36 0 0 Z " fill="#6043B5" transform="translate(77,31)"/>
<path d="M0 0 C3.51483623 2.05032114 5.70332836 4.10998507 7 8 C7.125 10.75 7.125 10.75 7 13 C6.01 13 5.02 13 4 13 C3.89042969 12.43410156 3.78085938 11.86820313 3.66796875 11.28515625 C3.50941406 10.55167969 3.35085937 9.81820313 3.1875 9.0625 C3.03667969 8.33160156 2.88585937 7.60070312 2.73046875 6.84765625 C2.48941406 6.23792969 2.24835938 5.62820312 2 5 C-1.62703026 3.79098991 -5.24017363 3.21339525 -9 4 C-12.20601256 6.27541776 -12.91983059 7.5457067 -13.609375 11.453125 C-13.67898437 13.33257813 -13.67898437 13.33257813 -13.75 15.25 C-13.80671875 16.51328125 -13.8634375 17.7765625 -13.921875 19.078125 C-13.94765625 20.04234375 -13.9734375 21.0065625 -14 22 C-15.32 22 -16.64 22 -18 22 C-18 23.32 -18 24.64 -18 26 C-16.68 26 -15.36 26 -14 26 C-14 26.66 -14 27.32 -14 28 C-16.31 28.33 -18.62 28.66 -21 29 C-21 26.03 -21 23.06 -21 20 C-19.68 19.67 -18.36 19.34 -17 19 C-17.04640625 18.27554687 -17.0928125 17.55109375 -17.140625 16.8046875 C-17.37046287 10.64831587 -17.31129905 6.80401894 -13 2 C-8.7567553 -0.8288298 -4.98265471 -0.65268001 0 0 Z " fill="#3D55BA" transform="translate(76,12)"/>
<path d="M0 0 C0.33 0 0.66 0 1 0 C1 2.64 1 5.28 1 8 C1.99 8.33 2.98 8.66 4 9 C3.40832031 9.38929687 2.81664063 9.77859375 2.20703125 10.1796875 C-3.9170915 14.51552645 -7.96982997 18.65039409 -10 26 C-10.95492285 33.98895281 -10.85271825 41.13887981 -6.875 48.265625 C-6 50 -6 50 -6 53 C-9.2337098 51.65488542 -10.71353535 50.53328844 -12.25 47.375 C-15.43384426 39.56700099 -15.58954692 28.85964947 -12.4375 21 C-9.84474321 16.16762176 -5.99342831 10.49671416 -1 8 C-0.53476937 6.10466658 -0.53476937 6.10466658 -0.375 3.9375 C-0.25125 2.638125 -0.1275 1.33875 0 0 Z " fill="#4544A1" transform="translate(54,33)"/>
<path d="M0 0 C1.13566406 -0.00515625 2.27132812 -0.0103125 3.44140625 -0.015625 C6.4375 0.25 6.4375 0.25 9.4375 2.25 C3.8275 2.25 -1.7825 2.25 -7.5625 2.25 C-7.975 3.714375 -8.3875 5.17875 -8.8125 6.6875 C-9.515625 9.18359375 -9.515625 9.18359375 -10.5625 11.25 C-12.671875 12.03515625 -12.671875 12.03515625 -14.5625 12.25 C-14.5625 13.24 -14.5625 14.23 -14.5625 15.25 C-15.2225 15.25 -15.8825 15.25 -16.5625 15.25 C-16.8925 16.24 -17.2225 17.23 -17.5625 18.25 C-19.625 18.9375 -19.625 18.9375 -21.5625 19.25 C-20.95311932 12.85150285 -18.37880423 8.65787277 -13.5625 4.5 C-8.79326604 0.92307453 -6.03285134 -0.02745325 0 0 Z " fill="#78B5E3" transform="translate(70.5625,44.75)"/>
<path d="M0 0 C0.33 0 0.66 0 1 0 C1.06058594 0.68707031 1.12117188 1.37414063 1.18359375 2.08203125 C1.30927734 3.43361328 1.30927734 3.43361328 1.4375 4.8125 C1.51871094 5.70582031 1.59992188 6.59914063 1.68359375 7.51953125 C1.93489767 10.12743559 1.93489767 10.12743559 3 13 C-0.09489891 21.85736758 -4.92803168 28.40444229 -12.9921875 33.1796875 C-15 34 -15 34 -19 34 C-18 31 -18 31 -16.36328125 30.078125 C-15.68652344 29.80484375 -15.00976562 29.5315625 -14.3125 29.25 C-8.4563928 26.47936864 -4.75383253 22.24714398 -2.1875 16.3125 C-0.42336131 11.05121578 -0.26605983 5.50468622 0 0 Z " fill="#6E2BA0" transform="translate(99,62)"/>
<path d="M0 0 C1.32 0.33 2.64 0.66 4 1 C4 1.99 4 2.98 4 4 C6.97 4 9.94 4 13 4 C13 4.33 13 4.66 13 5 C9.7 5 6.4 5 3 5 C2.67 5.66 2.34 6.32 2 7 C6.62 7 11.24 7 16 7 C16 5.68 16 4.36 16 3 C17.98 3 19.96 3 22 3 C22 4.32 22 5.64 22 7 C17.02988327 8.99118241 12.87666865 9.24845695 7.625 9.125 C6.52091797 9.11146484 6.52091797 9.11146484 5.39453125 9.09765625 C3.5962112 9.07430144 1.79806089 9.03843836 0 9 C0 8.34 0 7.68 0 7 C-1.32 7 -2.64 7 -4 7 C-4 5.68 -4 4.36 -4 3 C-2.68 3 -1.36 3 0 3 C0 2.01 0 1.02 0 0 Z " fill="#39469C" transform="translate(62,31)"/>
<path d="M0 0 C3.51483623 2.05032114 5.70332836 4.10998507 7 8 C7.125 10.75 7.125 10.75 7 13 C6.01 13 5.02 13 4 13 C3.89042969 12.43410156 3.78085938 11.86820313 3.66796875 11.28515625 C3.50941406 10.55167969 3.35085937 9.81820313 3.1875 9.0625 C3.03667969 8.33160156 2.88585937 7.60070312 2.73046875 6.84765625 C2.48941406 6.23792969 2.24835938 5.62820312 2 5 C-3.96422183 3.01192606 -9.25472393 3.70188957 -15 6 C-12.01147602 -0.8965938 -6.77146325 -0.88699678 0 0 Z " fill="#385AB1" transform="translate(76,12)"/>
<path d="M0 0 C1.485 0.99 1.485 0.99 3 2 C3.37109375 4.72265625 3.37109375 4.72265625 3.4375 8.0625 C3.71392283 13.48880041 4.62388125 17.41159097 7.16015625 22.1953125 C8 24 8 24 8 27 C3.7005645 25.21157935 2.51265146 23.18927633 0.75 18.99609375 C-0.80169642 12.7973898 -0.28005857 6.34021493 0 0 Z " fill="#532D8C" transform="translate(40,59)"/>
<path d="M0 0 C2.97 0 5.94 0 9 0 C9 0.99 9 1.98 9 3 C6.36 3 3.72 3 1 3 C1 4.32 1 5.64 1 7 C-3.62 7 -8.24 7 -13 7 C-12.67 6.01 -12.34 5.02 -12 4 C-8.7 4 -5.4 4 -2 4 C-1.34 2.68 -0.68 1.36 0 0 Z " fill="#4B57C8" transform="translate(77,31)"/>
<path d="M0 0 C0.66 0.33 1.32 0.66 2 1 C2.25719817 3.02543556 2.50842122 5.05350224 2.65625 7.08984375 C2.85476212 9.23522156 2.85476212 9.23522156 5 11 C4.67 11.66 4.34 12.32 4 13 C2.66666667 12.33333333 1.33333333 11.66666667 0 11 C-1.051875 10.505 -2.10375 10.01 -3.1875 9.5 C-6 8 -6 8 -7 6 C-5.35 6 -3.7 6 -2 6 C-2 4.68 -2 3.36 -2 2 C-1.34 2 -0.68 2 0 2 C0 1.34 0 0.68 0 0 Z " fill="#4347A5" transform="translate(86,32)"/>
<path d="M0 0 C0 1.32 0 2.64 0 4 C4.29 4.66 8.58 5.32 13 6 C13 6.33 13 6.66 13 7 C5.11397658 7.4731614 -0.20780865 7.17981006 -7 3 C-7 2.34 -7 1.68 -7 1 C-3.375 -1.125 -3.375 -1.125 0 0 Z " fill="#C6A3E8" transform="translate(64,82)"/>
<path d="M0 0 C1 2 1 2 1 5 C1.33 5.99 1.66 6.98 2 8 C1.34 8 0.68 8 0 8 C-0.33 8.99 -0.66 9.98 -1 11 C-3.0625 11.6875 -3.0625 11.6875 -5 12 C-4.52389341 7.00088076 -2.96837781 4.02167317 0 0 Z " fill="#8DAEE1" transform="translate(54,52)"/>
<path d="M0 0 C4.51290803 3.33562767 6.68206814 5.33289301 8 11 C7.01 10.67 6.02 10.34 5 10 C4.67 9.01 4.34 8.02 4 7 C1.69 7 -0.62 7 -3 7 C-3 6.34 -3 5.68 -3 5 C-2.01 5 -1.02 5 0 5 C0 3.35 0 1.7 0 0 Z " fill="#87B3E7" transform="translate(84,49)"/>
<path d="M0 0 C1.98 0 3.96 0 6 0 C6 1.32 6 2.64 6 4 C0.03726175 6.81573751 -5.6677986 5.75822476 -12 5 C-12 4.67 -12 4.34 -12 4 C-8.04 4 -4.08 4 0 4 C0 2.68 0 1.36 0 0 Z " fill="#30387A" transform="translate(78,34)"/>
<path d="M0 0 C0.99 0 1.98 0 3 0 C1.45730076 4.72065967 -0.07794619 9.41664092 -2 14 C-2.33 14 -2.66 14 -3 14 C-3.29341888 8.32723489 -3.00559652 5.00932754 0 0 Z " fill="#5342AF" transform="translate(44,50)"/>
<path d="M0 0 C0.33 0 0.66 0 1 0 C1.06058594 0.68707031 1.12117188 1.37414063 1.18359375 2.08203125 C1.26738281 2.98308594 1.35117188 3.88414063 1.4375 4.8125 C1.51871094 5.70582031 1.59992188 6.59914063 1.68359375 7.51953125 C1.93489767 10.12743559 1.93489767 10.12743559 3 13 C2.0625 15.6875 2.0625 15.6875 1 18 C0.01 18 -0.98 18 -2 18 C-1.34 12.06 -0.68 6.12 0 0 Z " fill="#542D85" transform="translate(99,62)"/>
<path d="M0 0 C1.21236328 0.02707031 1.21236328 0.02707031 2.44921875 0.0546875 C3.37154297 0.08949219 3.37154297 0.08949219 4.3125 0.125 C3.9825 0.785 3.6525 1.445 3.3125 2.125 C0.99706957 2.85140955 -1.34019935 3.50931458 -3.6875 4.125 C-5.69111307 4.78072791 -7.69241933 5.44375294 -9.6875 6.125 C-7.58496928 1.27300604 -5.24222142 -0.15194845 0 0 Z " fill="#3765C3" transform="translate(70.6875,11.875)"/>
<path d="M0 0 C2 2 2 2 2 6 C3.65 6 5.3 6 7 6 C7 6.66 7 7.32 7 8 C4.69 8.33 2.38 8.66 0 9 C0 6.03 0 3.06 0 0 Z " fill="#454FCB" transform="translate(55,32)"/>
<path d="M0 0 C0 0.33 0 0.66 0 1 C-1.670625 1.2784375 -1.670625 1.2784375 -3.375 1.5625 C-4.57125 2.036875 -5.7675 2.51125 -7 3 C-8.54086322 6.51400668 -8.54086322 6.51400668 -9 10 C-9.33 10 -9.66 10 -10 10 C-10.125 3.375 -10.125 3.375 -9 0 C-5.52176885 -1.15941038 -3.54104422 -0.70820884 0 0 Z " fill="#7997BE" transform="translate(73,56)"/>
<path d="M0 0 C1.98 1.65 3.96 3.3 6 5 C5.01 5.495 5.01 5.495 4 6 C3.67 6.66 3.34 7.32 3 8 C1.35 6.02 -0.3 4.04 -2 2 C-1.34 2 -0.68 2 0 2 C0 1.34 0 0.68 0 0 Z " fill="#5F268A" transform="translate(48,84)"/>
<path d="M0 0 C0 0.66 0 1.32 0 2 C-3.08809695 3.76462683 -4.23312136 4 -8 4 C-7.67 3.01 -7.34 2.02 -7 1 C-4 0 -4 0 0 0 Z " fill="#7F2AAB" transform="translate(88,92)"/>
<path d="M0 0 C0.33 0.99 0.66 1.98 1 3 C1.66 3 2.32 3 3 3 C2.67 3.66 2.34 4.32 2 5 C0.68 5 -0.64 5 -2 5 C-2.33 5.66 -2.66 6.32 -3 7 C-3.33 6.34 -3.66 5.68 -4 5 C-2.52830189 1.26415094 -2.52830189 1.26415094 0 0 Z " fill="#87C1F9" transform="translate(57,51)"/>
<path d="M0 0 C0.66 0 1.32 0 2 0 C2 1.65 2 3.3 2 5 C-0.3431213 4.74438677 -2.67843403 4.40729228 -5 4 C-5.33 3.34 -5.66 2.68 -6 2 C-4.02 2 -2.04 2 0 2 C0 1.34 0 0.68 0 0 Z " fill="#5158DA" transform="translate(85,36)"/>
<path d="M0 0 C1.18851563 0.19464844 2.37703125 0.38929687 3.6015625 0.58984375 C4.97441406 0.82380859 4.97441406 0.82380859 6.375 1.0625 C6.375 1.3925 6.375 1.7225 6.375 2.0625 C4.43780622 2.11656122 2.50018079 2.15532025 0.5625 2.1875 C-0.51644531 2.21070312 -1.59539062 2.23390625 -2.70703125 2.2578125 C-5.625 2.0625 -5.625 2.0625 -8.625 0.0625 C-5.61666904 -1.44166548 -3.27538422 -0.54589737 0 0 Z " fill="#AF8BC2" transform="translate(70.625,86.9375)"/>
<path d="M0 0 C0.99 0.33 1.98 0.66 3 1 C2.34 2.65 1.68 4.3 1 6 C0.34 6 -0.32 6 -1 6 C-1.625 4.125 -1.625 4.125 -2 2 C-1.34 1.34 -0.68 0.68 0 0 Z " fill="#CEACF6" transform="translate(82,80)"/>
<path d="M0 0 C0.66 0 1.32 0 2 0 C2 1.65 2 3.3 2 5 C2.99 5.33 3.98 5.66 5 6 C4.34 6 3.68 6 3 6 C3 6.66 3 7.32 3 8 C2.01 7.67 1.02 7.34 0 7 C0 4.69 0 2.38 0 0 Z " fill="#C2B3F9" transform="translate(75,71)"/>
<path d="M0 0 C2.86724686 0.57344937 3.8614515 0.8614515 6 3 C6 3.99 6 4.98 6 6 C3.37812506 4.95125002 2.20628639 4.35068687 0.75 1.875 C0.5025 1.25625 0.255 0.6375 0 0 Z " fill="#5854C5" transform="translate(89,43)"/>
<path d="M0 0 C0.66 0 1.32 0 2 0 C2 0.66 2 1.32 2 2 C2.66 2 3.32 2 4 2 C4.625 3.875 4.625 3.875 5 6 C4.34 6.66 3.68 7.32 3 8 C0 3.375 0 3.375 0 0 Z " fill="#ACA1D8" transform="translate(50,73)"/>
<path d="M0 0 C2.0625 0.6875 2.0625 0.6875 5.0625 2.6875 C4.7325 3.6775 4.4025 4.6675 4.0625 5.6875 C3.19625 5.006875 3.19625 5.006875 2.3125 4.3125 C0.2824667 2.84636484 -1.67289843 1.73892216 -3.9375 0.6875 C-1.9375 -0.3125 -1.9375 -0.3125 0 0 Z " fill="#8CB7E7" transform="translate(72.9375,54.3125)"/>
<path d="M0 0 C0.33 0 0.66 0 1 0 C1 3.63 1 7.26 1 11 C-0.32 10.34 -1.64 9.68 -3 9 C-2.34 8.34 -1.68 7.68 -1 7 C-0.59952556 4.67724823 -0.2602896 2.34260643 0 0 Z " fill="#9399C8" transform="translate(78,61)"/>
<path d="M0 0 C1.76462683 3.08809695 2 4.23312136 2 8 C1.34 8 0.68 8 0 8 C-0.38063221 5.6739143 -0.71269945 3.33944736 -1 1 C-0.67 0.67 -0.34 0.34 0 0 Z " fill="#582FA0" transform="translate(41,66)"/>
<path d="M0 0 C0.66 0.33 1.32 0.66 2 1 C2 3.31 2 5.62 2 8 C1.67 6.68 1.34 5.36 1 4 C0.34 4 -0.32 4 -1 4 C-1.33 4.66 -1.66 5.32 -2 6 C-2 4.68 -2 3.36 -2 2 C-1.34 2 -0.68 2 0 2 C0 1.34 0 0.68 0 0 Z " fill="#343C81" transform="translate(86,32)"/>
<path d="M0 0 C1.65 0 3.3 0 5 0 C5 1.32 5 2.64 5 4 C3.35 3.67 1.7 3.34 0 3 C0 2.01 0 1.02 0 0 Z " fill="#030305" transform="translate(79,34)"/>
<path d="M0 0 C1.65 0 3.3 0 5 0 C5 0.99 5 1.98 5 3 C3.35 3.33 1.7 3.66 0 4 C0 2.68 0 1.36 0 0 Z " fill="#020205" transform="translate(58,34)"/>
</svg>
