<?xml version="1.0" encoding="UTF-8"?>
<svg version="1.1" viewBox="0 0 2048 1532" width="1280" height="1280" xmlns="http://www.w3.org/2000/svg">
<path transform="translate(0)" d="m0 0h2048v1532h-2048z" fill="#FDFDFE"/>
<path transform="translate(938,603)" d="m0 0h52l21 2 20 4 20 6 27 11 25 12 27 16 18 13 15 13 12 11 7 7 7 8 11 12 13 17 10 15 12 21 11 23 10 26 6 21 4 21 3 26 1 16v24l-4 29-6 25-9 27-12 26-12 25-14 23-10 14-11 13-7 8-9 10-13 12-11 9-18 13-24 14-16 8-19 9-20 7-20 6-37 7-20 3h-32l-29-4-27-6-30-10-28-12-15-8-18-11-17-12-17-14-13-12-15-15-18-22-14-20-15-27-15-32-7-19-6-22-4-25-2-25v-33l3-26 5-23 6-21 11-28 9-19 11-20 10-15 14-18 11-12 7-8 12-12 8-7 10-9 16-12 13-9 13-8 16-8 18-8 31-11 25-6 20-3z" fill="#B0ACFE"/>
<path transform="translate(951,521)" d="m0 0h22l26 2 35 5 28 6 27 8 19 8 20 9 27 14 21 13 19 13 16 13 11 9 32 32 4 6 5 5 11 13 16 24 5 9 4 6 1 5h2l11 22 11 26 12 37 6 29 3 27 2 31v46l-3 32-4 23-6 23-9 25-8 20-11 24-11 20-11 16-12 17-12 16-7 7-7 8-26 26-11 9-14 11-17 12-15 10-18 10-30 14-25 10-19 7-25 6-31 6-28 3h-49l-24-2-24-4-33-8-33-11-26-11-25-12-18-11-14-10-11-9-16-13-14-12-23-23-9-11-11-13-13-17-10-14-11-19-8-16-8-17-13-35-6-20-7-31-3-19-2-21-1-17v-19l2-33 3-27 4-20 8-26 9-26 10-23 12-22 10-17 12-17 10-14 9-11 12-14 14-15 15-15 11-9 13-11 17-12 19-12 18-10 21-10 27-11 30-10 22-5 25-4 26-3zm-13 82-20 2-22 4-19 5-31 11-22 10-16 9-19 13-18 14-13 12-10 9-11 11-9 11-8 9-12 16-11 18-11 21-12 28-8 24-6 26-3 20-1 11v33l2 25 4 25 7 25 10 25 14 29 14 24 13 18 8 10 13 15 19 19 11 9 12 10 24 16 15 9 21 10 23 9 24 8 27 6 29 4h32l37-6 24-5 25-8 20-8 30-15 20-12 18-13 15-13 12-11 12-13 11-14 9-12 10-16 10-18 13-27 10-24 7-22 6-28 3-23v-24l-2-26-4-28-5-21-10-28-12-26-9-17-12-19-10-13-9-11-12-13-11-12-7-7-11-9-13-11-18-12-24-14-25-12-28-11-21-6-24-4-13-1z" fill="#FDFDFE"/>
<path transform="translate(944,154)" d="m0 0h31v2l14 1 21 5 20 8 16 9 14 10 10 9 6 5 7 8 10 13 8 13 12 25 7 23 4 19 2 18v13l-2 1h-37l-2-22-4-23-7-21-8-16-10-14-9-10-10-9-14-9-14-7-18-5-18-3-20-1-17 2-18 6-16 8-9 6-14 12-7 7-10 13-8 13-7 17-4 15-3 21-1 24 1 71 1 8 6 1 16 1 12 3 10 5 10 9 5 10 2 8v26h21l15-1h47l37 2 1-5v-21l4-11 6-9 10-9 10-5 14-2 22-1h46l18 2 12 4 10 7 7 10 4 13 1 11v30l-1 48 15 10 20 14 12 9 6 5v2l5 2 5 5 8 7 7 8 13 13 4 5 5 5 9 11v2h2l9 13v2h2l2 3v3h2l16 26 6 10 14 26 7 17 6 13 5 13 6 15 6 19 6 24 4 26 3 31v39l-1 23-6 36-5 23-6 20-8 23-12 30-12 26-15 27-18 27-9 12-14 17-10 11-7 8-12 12-8 7-14 12-13 10-18 13-19 12-19 11-22 11-29 12-21 8-36 12-31 6-25 3-14 1h-37l-28-2-25-3-27-5-20-5-33-11-41-16-20-10-21-13-16-11-14-10-13-11-11-9-8-8-8-7-8-8-7-8-13-15-10-12-11-15-17-26-12-19-8-16-7-15-9-23-9-24-6-18-6-25-5-33-2-20-1-17v-30l2-27 1-1 3-22 5-23 10-34 13-35 11-26 10-19 8-14 12-18 11-16 12-16 9-11 15-16 26-26 22-18 16-11 14-9 4-5 1-2-1-28v-60l5-12 7-8 15-10 10-3 25-3 2-100 2-22 5-25 7-19 9-19 8-11 7-9 8-9 8-7 7-6 15-11 17-10 14-6 20-6 14-3zm7 367-26 2-37 5-23 5-26 8-28 11-16 7-16 8-21 12-22 15-10 8-16 13-13 12-16 16-7 8-12 14-14 18-18 27-12 21-8 16-9 20-14 41-6 25-2 12-3 33-1 21v19l2 28 3 23 6 29 6 22 10 28 9 22 9 19 11 19 10 15 10 13 13 16 9 11 12 13 19 19 11 9 17 14 17 13 19 12 25 13 26 11 25 9 24 7 33 7 22 3 15 1h49l28-3 36-7 23-6 34-13 35-16 15-8 16-10 22-16 14-11 14-12 28-28 7-8 8-10 10-14 14-20 9-15 10-19 12-28 11-30 5-17 5-25 3-26 1-13v-46l-3-41-3-23-5-23-13-40-13-29-8-16h-2l-2-7-4-5-5-10-11-16-10-13-8-10-5-5-7-8-28-28-11-9-15-12-18-12-18-11-26-14-19-9-19-8-21-7-28-7-30-5-26-3-16-1z" fill="#4956FD"/>
<path transform="translate(938,603)" d="m0 0h52l21 2 20 4 20 6 27 11 25 12 27 16 18 13 15 13 12 11 7 7 7 8 11 12 4 5 2 5 1 4h2l13 21 7 14 3 3 2 5-1 5h-3l-1 2-3 2 1 2v9l-1 6 3 3-1 4h-3l-2-7-10 3-7 5-3 4-8 4-1 1-11 1-4-5h-6l-3 1v2l-4 1v-2h-3l-1-8-6 2-1 3h-2l-1 5-6 1 2 8h-10l-5 4-5-1-1-2h-7l-4 2-2 4-5 3h-2l-2 4-9 3h-10l-2-2-1-5-5-2-4-6-1 2h-2l-1 3-4-1-4-4-4-2-8-14-9-12-10-10-15-10-14-7-16-5-21-3h-10l-15 2-18 6-14 8-10 8-10 9-10 12-5 8-10 1-5-1-5-2-2-6 3-1h-7v3h-2v2l-7-1-7-2-2 2-1 3h-2l-1 2-3 2-1 9-3 3v2h-2l1 2 4 1-1 2-7 1h-7l-1-3h-9l-6-2-3 2h-4l-1-3-4-1-2 2-4-1-4-2-6 3h-3l-2 3-5-1-2-2-8-2-12-1-10-5-1-4-9 3h-3l-3-5-3-1 4 6-5 3-10-3-3-5-3-7-2-5-6 1v-4l3-13 11-24 11-20 10-15 14-18 11-12 7-8 12-12 8-7 10-9 16-12 13-9 13-8 16-8 18-8 31-11 25-6 20-3z" fill="#84BAFE"/>
<path transform="translate(1328,753)" d="m0 0 6 2 1 9-1 3 7 2v4l3 1v2l7 1-4-6 3-1-4-8 3-1-4-5v-3l7 1 1 3h2l3 6 3 4 1 4 3 6 5 1 8 25 6 24 4 26 3 31v39l-1 23-6 36-5 23-6 20-8 23-12 30-12 26-15 27-18 27-9 12-14 17-10 11-7 8-12 12-8 7-14 12-13 10-18 13-19 12-19 11-22 11-29 12-21 8-36 12-31 6-25 3-14 1h-37l-28-2-25-3-27-5-20-5-33-11-41-16-20-10-21-13-16-11-14-10-13-11-11-9-8-8-8-7-8-8-7-8-13-15-10-12-11-15-17-26-12-19-8-16-7-15-9-23-9-24-6-18-6-25-5-33-2-20-1-17v-30l2-27 3 1v6h2l2 4 2 1 2-4 1 10 1 8h3l2-9 2-7 3-3 2 18v11l1 7 1 4 2-2v-10l1-7 1-3 2-15 1-13 4-8 3-1 1-2 1 7-2 21-1 21v19l2 28 3 23 6 29 6 22 10 28 9 22 9 19 11 19 10 15 10 13 13 16 9 11 12 13 18 18 11 9 17 14 17 13 19 12 25 13 26 11 25 9 24 7 33 7 22 3 15 1h49l28-3 36-7 23-6 34-13 35-16 15-8 16-10 22-16 14-11 14-12 27-27 7-8 8-10 10-14 14-20 9-15 10-19 12-28 11-30 5-17 5-25 3-26 1-13v-46l-3-41-3-23-5-23-11-34h2v-7l2-2 1 3h2l-1-4-4-4v-2h2z" fill="#A035F8"/>
<path transform="translate(955,765)" d="m0 0h10l21 3 21 7 14 8 12 9 11 11 10 15 6 12 3 11 2 18v12l-2 19-5 15-10 18-7 9-9 10-12 12-14 10-1 4v26l-1 21-3 21-4 13-6 9-8 8-8 4-5 1h-12l-12-4-10-7-8-9-4-10-2-10-1-11-1-53-7-8-10-9-8-7-10-11-9-13-9-19-6-21-1-6v-21l4-16 7-16 10-14 11-12 13-11 15-9 16-6 8-2z" fill="#FEFDFE"/>
<path transform="translate(944,154)" d="m0 0h31v2l14 1 21 5 20 8 16 9 14 10 10 9 6 5 7 8 10 13 8 13 12 25 7 23 4 19 2 18v13l-2 1h-37l-2-22-4-23-7-21-8-16-10-14-9-10-10-9-14-9-14-7-18-5-18-3-20-1-17 2-18 6-16 8-9 6-14 12-7 7-10 13-8 13-7 17-4 15-4 27-1 12-1 34-2 2h-3l2 1v30l1 3-2 8-2 3-5 2-3 3h-7l-6-1-7-1-1-5 1-17h-1v-78l2-22 5-25 7-19 9-19 8-11 7-9 8-9 8-7 7-6 15-11 17-10 14-6 20-6 14-3z" fill="#205EFD"/>
<path transform="translate(676,593)" d="m0 0 2 1-3 4-1 4h-2l-2 4-9 10h-2l-1 3-4 3h-3l-1 5 6-1 8-4 3 1v4h-2l3 4-1 2 3-1-2 5-3 3h-2l1 4v3l-3 10-4 6-2 6 2 4-9 12-12 17-12 20-9 16-13 29-14 41-6 25-3 19-5 2-3 7-2 21-1 9-1 4-1 10-1 6h-3l-1-4-1-14v-8l-2-12-3 6-1 8-2 4-4-1-1-13-1-3-1 2-4-2v-3h-2v-6h-2l2-19 5-24 10-35 13-36 12-28 10-19 8-14 12-18 11-16 12-16 9-11 15-16 14-14z" fill="#5843FA"/>
<path transform="translate(1216,567)" d="m0 0 5 2 12 9 6 5v2l5 2 5 5 8 7 7 8 13 13 4 5 5 5 9 11v2h2l9 13v2h2l2 3v3h2l16 26 6 10 14 26 7 17 6 13 5 13 3 9-4 1-5-10 1-2-2-1-3-5-1-4h-2l-1-2-4-1-3-1 4 7 1 2-3 1 3 4v3l-2 2 4 4-1 2-7-2-3-3-2-3-5-3v-9l-1-3-4-1-1 4v-2h-2l2 4 4 4-1 2h-2l-1-2-1 3-1 5h-2l-8-20-14-29v-2h-2l-5-10-3-5-10-16-11-15-11-14-5-5-9-10-26-26-11-9-15-12-18-12-14-9 4-1 9 2v2l6 2 5 2h4v2l2-1v-2l5 1 3-1 10 4 1 4 9 1-3-2v-2l-4-1-7-7v-4l6 2 6 3v2l4 1 15 11 5 3-1-4h-2l-5-6-4-7-14-14z" fill="#5843FA"/>
<path transform="translate(1066,459)" d="m0 0h42l38 1 1 1v63l-9-3-40-16-29-10-4-3-2-9v-19z" fill="#FAFAFE"/>
<path transform="translate(778,458)" d="m0 0 73 2 10 1 2 2v16l-1 10-5 5-37 13-36 15-3-1-1-9-1-29-1-14z" fill="#FAFAFE"/>
<path transform="translate(1169,1133)" d="m0 0h3v2l-8 7-11 11-10 8-8 7-4 3h-2l-2 4-4 5-5 4-5 6-15 10-7 3-7 5-16 6-13 4-11 3-20 3h-25l-29-2-23-3-18-2-13-2-27-8-1-2 19 4 30 5 9 1h32l37-6 24-5 25-8 20-8 30-15 20-12 18-13 15-13z" fill="#FEFAFE"/>
<path transform="translate(1137,1248)" d="m0 0h6l-4 3-38 17-30 11-25 6-31 6-28 3h-49l-24-2-24-4-30-7 4-2 23 3h18l-2-6 7-2h48l34 2h21l2 1-2 4h-2v3h16l24-4 9-3 18-5 17-6 16-6 16-8 8-3z" fill="#FEFAFE"/>
<path transform="translate(580,799)" d="m0 0 2 1 1 3v6h4l-2 10-5 26-1 7-5 2-3 7-2 21-1 9-1 4-1 10-1 6h-3l-1-4-1-14v-8l-2-12-3 6-1 8-2 4-4-1-1-13-1-3-1 2-4-2v-3h-2v-6h-2l2-19 3-16 5-3 6-2 2-5 5-2 1 2 6-4h2l1-5 8-9z" fill="#4956FD"/>
<path transform="translate(1302,719)" d="m0 0h2l8 8v2l4 2 2 2 3 2 8 1h3l6 4 4 1 1-3 4-1v3l2 1-1 2 3 1 6 10 6 7 6 15-1 3h-3l-5-10 1-2-2-1-3-5-1-4h-2l-1-2-4-1-3-1 4 7 1 2-3 1 3 4v3l-2 2 4 4-1 2-7-2-3-3-2-3-5-3v-9l-1-3-4-1-1 4v-2h-2l2 4 4 4-1 2h-2l-1-2-1 3-1 5h-2l-8-20-14-29z" fill="#4B56FD"/>
<path transform="translate(1089,420)" d="m0 0h46l18 2 12 4 10 7 6 8-1 3-1-2-9-4-6-4-7-3h-12l-12-2-26-2-7-1-17 1-18 3h-16l-6 1 3-5 11-4 10-1z" fill="#5644FA"/>
<path transform="translate(951,521)" d="m0 0h22l26 2 35 5 28 6 7 2-4 1-26-6-28-4-37-3h-22l-37 3-35 5-21 5-19 6-3-1 24-8 22-5 25-4 26-3z" fill="#B1ACFE"/>
<path transform="translate(840,421)" d="m0 0h23l12 3 10 5 8 7-2 1-8-2v-2l-10-3-7-2h-10l-4-2-1-2h-7l-4-2z" fill="#5744FA"/>
<path transform="translate(745,578)" d="m0 0 6 1-2 7-17 12-4 3h-2v-2h-2v-2h2l1-4 2-4 10-8h3v-2z" fill="#5645FA"/>
<path transform="translate(1053,802)" d="m0 0 3 4 1 2 2-2 3 6 2 11-2 2-1-3-5 1-8-13 3-7z" fill="#B0ACFE"/>
<path transform="translate(702,616)" d="m0 0 2 2-1 4-12 12-6 3h-2l1-5 5-6h2l2-4 3-1v-2z" fill="#5645FA"/>
<path transform="translate(771,422)" d="m0 0h9l-4 2-4 1v2l-6 2-5 1-1 3-5 3-5 5-6 2 2-5 8-7 11-7z" fill="#5645FA"/>
<path transform="translate(1165,683)" d="m0 0 4 2 13 13 7 8 11 12-1 2-5-5-14-15-7-8-8-8z" fill="#B1ACFE"/>
<path transform="translate(1125,322)" d="m0 0h1v13l-2 1h-37v-13h1l1 11h36z" fill="#5546FA"/>
<path transform="translate(780,483)" d="m0 0h1l2 36h6l-2 2-5 1-1-1-1-9z" fill="#B0ACFE"/>
<path transform="translate(1145,492)" d="m0 0h1l1 32-4-2h2z" fill="#B1ACFE"/>
<path transform="translate(700,572)" d="m0 0 2 1-6 5-4 5-5 3-2-1 11-10z" fill="#5447FA"/>
<path transform="translate(1038,432)" d="m0 0 2 1-6 7-1 4-3 1-3 3 2-6z" fill="#5349FB"/>
<path transform="translate(1227,604)" d="m0 0 6 1 4 8h-3v-2h-2v-2h-2l-1-3z" fill="#4957FE"/>
<path transform="translate(1144,499)" d="m0 0h1v23l-3-1 1-2z" fill="#FEFAFF"/>
</svg>
